inDegrees=yes
name=ik_S49_A01_T02
DataType=double
version=3
OpenSimVersion=4.3-2021-08-27-4bc7ad9
endheader
time	pelvis_tilt	pelvis_list	pelvis_rotation	pelvis_tx	pelvis_ty	pelvis_tz	hip_flexion_r	hip_adduction_r	hip_rotation_r	knee_angle_r	knee_angle_r_beta	ankle_angle_r	subtalar_angle_r	mtp_angle_r	hip_flexion_l	hip_adduction_l	hip_rotation_l	knee_angle_l	knee_angle_l_beta	ankle_angle_l	subtalar_angle_l	mtp_angle_l	lumbar_extension	lumbar_bending	lumbar_rotation	arm_flex_r	arm_add_r	arm_rot_r	elbow_flex_r	pro_sup_r	wrist_flex_r	wrist_dev_r	arm_flex_l	arm_add_l	arm_rot_l	elbow_flex_l	pro_sup_l	wrist_flex_l	wrist_dev_l
21.33999999999963	0.3772606892115545	2.761107025408272	78.48529669338062	0	0.9399999999999999	0	-5.25336417626645	2.146999294608349	-12.99591914390184	-8.113009356809018	-0.1415987255214248	0	0	0	10.78713652412217	-9.358059951731059	-9.374744187385698	18.12389195770017	0.3163215879375887	0	0	0	0	0	0	38.91225690487121	-38.9122569048712	4.850207559684132	82.93093976909729	85.1497927084266	0	0	38.91225690487121	-38.9122569048712	4.850207559684132	82.93093976909729	85.14979270839879	0	0
21.35999999999963	0.4189648857513972	2.695710604578379	78.87885342564898	0	0.9399999999999999	0	-5.331986598573034	2.217862472222513	-12.85099721435992	-8.252692873413546	-0.144036662796938	0	0	0	9.789350752723186	-9.241293868126599	-12.11878751375694	17.29562564858695	0.3018656137602221	0	0	0	0	0	0	38.91839919853252	-38.91839919853251	4.850482843549897	82.93474347216173	85.1495174245732	0	0	38.91839919853252	-38.91839919853251	4.850482843549897	82.93474347216173	85.14951742454541	0	0
21.37999999999963	0.4877586842810738	2.60921931585682	79.66738531156896	0	0.9399999999999999	0	-5.245599065385564	2.341285695060962	-13.65547959247863	-8.167569752557318	-0.1425509840684238	0	0	0	9.688446910153598	-9.10743810295533	-12.48638853688414	17.15128875905739	0.2993464598058438	0	0	0	0	0	0	38.91921329729328	-38.91921329729328	4.850523049473801	82.93529908932925	85.14947721865113	0	0	38.91921329729328	-38.91921329729328	4.850523049473801	82.93529908932925	85.14947721862333	0	0
21.39999999999963	0.5528173005818491	2.542726380403151	80.45088777845928	0	0.9399999999999999	0	-5.25905251179384	2.501242998277139	-14.04031386967099	-8.260368878382305	-0.1441706343570423	0	0	0	9.769989067800799	-8.908745305566041	-11.85247103534545	17.07384180855356	0.297994755523923	0	0	0	0	0	0	38.9196322208108	-38.91963222081079	4.850543632707423	82.93558353287162	85.14945663541847	0	0	38.9196322208108	-38.91963222081079	4.850543632707423	82.93558353287162	85.14945663539068	0	0
21.41999999999963	0.8344266651592893	2.490146333180306	81.87847556111879	0	0.9399999999999999	0	-5.20130407455804	2.885965701509973	-15.49466672857065	-8.149028867408189	-0.1422273845763373	0	0	0	10.04533545624854	-8.512509403225803	-9.622129656779027	16.95951538400342	0.2959993829934901	0	0	0	0	0	0	38.92101101647011	-38.9210110164701	4.850610488377996	82.93650740624517	85.14938977975093	0	0	38.92101101647011	-38.9210110164701	4.850610488377996	82.93650740624517	85.14938977972312	0	0
21.43999999999963	0.7982788985705997	2.467386749514294	81.90422915576104	0	0.9399999999999999	0	-5.180398476275866	2.85350543658837	-15.5219590210884	-8.240593768260458	-0.1438254935754716	0	0	0	10.05727594379146	-8.230417826169056	-9.043630026760479	16.75891213967082	0.2924981958897036	0	0	0	0	0	0	38.92165881757101	-38.921658817571	4.850642489843787	82.93694964354442	85.14935777828659	0	0	38.92165881757101	-38.921658817571	4.850642489843787	82.93694964354442	85.14935777825879	0	0
21.45999999999963	1.231660237251591	2.693447966808087	82.99878225899917	0	0.9399999999999999	0	-5.9708261995342	3.291009098123646	-16.45835181736515	-8.390361624951829	-0.146439435788391	0	0	0	9.694178744753303	-8.312463804816693	-8.638327523844689	16.6882430310314	0.2912647872644961	0	0	0	0	0	0	38.92210059588925	-38.92210059588925	4.850664205403856	82.93724973494147	85.14933606272751	0	0	38.92210059588925	-38.92210059588925	4.850664205403856	82.93724973494147	85.14933606269972	0	0
21.47999999999963	1.476116038373618	2.883517868056915	83.46847242608399	0	0.9399999999999999	0	-6.354269360135381	3.212826179528158	-16.64523132809548	-7.412433688806	-0.1293713734554134	0	0	0	9.178000516739518	-8.368561621046092	-9.180688426800959	16.4392190743441	0.286918499303959	0	0	0	0	0	0	38.92307837156459	-38.92307837156459	4.85071252514959	82.9379174792943	85.14928774298399	0	0	38.92307837156459	-38.92307837156459	4.85071252514959	82.9379174792943	85.14928774295619	0	0
21.49999999999963	1.646205125104226	3.047471158168002	83.99068744034818	0	0.9399999999999999	0	-6.404717938360966	3.043299465347505	-17.31818528875406	-6.172396537498429	-0.1077286423180452	0	0	0	8.763522716832366	-8.166808252027872	-8.491376474380434	15.94410159571202	0.2782770691176565	0	0	0	0	0	0	38.92472694020474	-38.92472694020474	4.850793685147607	82.93903904642225	85.14920658298963	0	0	38.92472694020474	-38.92472694020474	4.850793685147607	82.93903904642225	85.14920658296184	0	0
21.51999999999963	1.719590653934011	3.140117022321271	84.22600312961598	0	0.9399999999999999	0	-6.313769473023577	2.532700811869713	-18.12876974995519	-4.211030466979793	-0.07349634655059174	0	0	0	8.328445432808373	-7.804762651537631	-8.208513115418077	15.39090576451475	0.2686219804549575	0	0	0	0	0	0	38.92604259930349	-38.92604259930348	4.850858576537202	82.9399357961432	85.14914169160299	0	0	38.92604259930349	-38.92604259930348	4.850858576537202	82.9399357961432	85.14914169157521	0	0
